<svg xmlns="http://www.w3.org/2000/svg" viewBox="0 0 27.6 30.88">
    <defs>
        <style>
            .cls-1{fill:#373b3d;}.cls-2{fill:#474849;}.cls-3{fill:#30ca93;}.cls-4{fill:#ffd000;}.cls-5{fill:#6977ff;}.cls-6{fill:#ff015b;}
        </style>
    </defs>
    <title>logo-whire-32x32</title>
    <g id="Livello_1" data-name="Livello 1">
        <path class="cls-1"
              d="M22.25,27.44a.73.73,0,0,0-.73.16.72.72,0,0,0-.22.35,1.42,1.42,0,0,1,.36-1.56,1.43,1.43,0,0,1,.68-.35.74.74,0,0,1,.67.22.72.72,0,0,1,0,1A.69.69,0,0,1,22.25,27.44Z"
              transform="translate(-0.59 -0.73)"/>
        <path class="cls-1"
              d="M12,26.68c0,.09,0,0,.19,0a2.47,2.47,0,0,1,.41-.17,4,4,0,0,1,1.14,0,1.66,1.66,0,0,1,.62.15,1.42,1.42,0,0,1,.53.34,1.65,1.65,0,0,1,.37.58,2,2,0,0,1,.14.81v2.24a1.23,1.23,0,0,1-.19.72.74.74,0,0,1-.63.25.65.65,0,0,1-.59-.25,1.32,1.32,0,0,1-.17-.72V28.4a1.31,1.31,0,0,0-.06-.41.92.92,0,0,0-.17-.29.68.68,0,0,0-.26-.18.81.81,0,0,0-.31-.06,1,1,0,0,0-.39.07.83.83,0,0,0-.32.2,1,1,0,0,0-.22.33,1.16,1.16,0,0,0-.08.47v2a1.23,1.23,0,0,1-.19.72.74.74,0,0,1-.63.25.65.65,0,0,1-.59-.25,1.32,1.32,0,0,1-.17-.72V25.33a1.32,1.32,0,0,1,.17-.72.66.66,0,0,1,.59-.25.74.74,0,0,1,.63.25,1.16,1.16,0,0,1,.19.72"
              transform="translate(-0.59 -0.73)"/>
        <path class="cls-1"
              d="M18.17,24.8a.55.55,0,0,1-.08.29.55.55,0,0,1-.19.21.84.84,0,0,1-.27.13,1.17,1.17,0,0,1-.32,0,1.15,1.15,0,0,1-.33,0,1,1,0,0,1-.28-.13.76.76,0,0,1-.19-.21.68.68,0,0,1-.06-.29.58.58,0,0,1,.06-.26.91.91,0,0,1,.18-.21.82.82,0,0,1,.28-.14,1.21,1.21,0,0,1,.34-.05,1.65,1.65,0,0,1,.32,0,1.2,1.2,0,0,1,.28.13,1,1,0,0,1,.19.21A.64.64,0,0,1,18.17,24.8Zm-.08,5.77a1.16,1.16,0,0,1-.19.72.72.72,0,0,1-.63.25.63.63,0,0,1-.58-.25,1.24,1.24,0,0,1-.18-.72v-3a1.24,1.24,0,0,1,.18-.72.64.64,0,0,1,.58-.26.72.72,0,0,1,.63.26,1.16,1.16,0,0,1,.19.72Z"
              transform="translate(-0.59 -0.73)"/>
        <path class="cls-1"
              d="M20.83,30.57a1.16,1.16,0,0,1-.19.72.72.72,0,0,1-.63.25.64.64,0,0,1-.58-.25,1.24,1.24,0,0,1-.17-.72V27.3a.79.79,0,0,1,.06-.32.84.84,0,0,1,.18-.23,1.08,1.08,0,0,1,.26-.14.94.94,0,0,1,.3-.05.7.7,0,0,1,.58.25.84.84,0,0,1,.17.45C20.83,27.35,20.83,30.57,20.83,30.57Z"
              transform="translate(-0.59 -0.73)"/>
        <path class="cls-1"
              d="M28.19,28.89a.33.33,0,0,1-.13.3.58.58,0,0,1-.37.1H24.62a1.4,1.4,0,0,0,.35.93,1.29,1.29,0,0,0,1,.33,2.5,2.5,0,0,0,.4,0l.36-.07.36-.11.37-.12.11,0a.32.32,0,0,1,.27.13.48.48,0,0,1,.1.29.58.58,0,0,1,0,.19.83.83,0,0,1-.33.39,1.67,1.67,0,0,1-.52.25,4.13,4.13,0,0,1-.63.13l-.63,0a3.27,3.27,0,0,1-1.06-.16,2.36,2.36,0,0,1-.86-.49,2.1,2.1,0,0,1-.56-.8A2.85,2.85,0,0,1,23.07,29a2.59,2.59,0,0,1,.2-1,2.34,2.34,0,0,1,.55-.8,2.63,2.63,0,0,1,.84-.54,2.87,2.87,0,0,1,1.07-.2,2.81,2.81,0,0,1,1.1.2A2.07,2.07,0,0,1,28,28,2.82,2.82,0,0,1,28.19,28.89Zm-1.32-.3a1.85,1.85,0,0,0-.09-.49,1.11,1.11,0,0,0-.22-.38,1,1,0,0,0-.34-.26,1.21,1.21,0,0,0-.48-.09.93.93,0,0,0-.45.1,1.1,1.1,0,0,0-.35.26,1.24,1.24,0,0,0-.22.39,1.4,1.4,0,0,0-.1.47Z"
              transform="translate(-0.59 -0.73)"/>
        <path class="cls-1"
              d="M2.22,25.28a1.77,1.77,0,0,0-.14-.39,1,1,0,0,0-.2-.27.61.61,0,0,0-.24-.15.74.74,0,0,0-.25,0,.73.73,0,0,0-.3.06.9.9,0,0,0-.26.17,1,1,0,0,0-.17.27.86.86,0,0,0-.07.36,1.22,1.22,0,0,0,0,.26l1.19,4.78a2,2,0,0,0,.46,1,1.07,1.07,0,0,0,.81.32,1.61,1.61,0,0,0,.57-.1,1.18,1.18,0,0,0,.4-.29,1.42,1.42,0,0,0,.27-.45,4.22,4.22,0,0,0,.2-.6l.41-1.63L5.3,30a5.5,5.5,0,0,0,.24.72,1.75,1.75,0,0,0,.29.51,1.14,1.14,0,0,0,.39.3,1.39,1.39,0,0,0,1.06,0,1.1,1.1,0,0,0,.38-.3,1.91,1.91,0,0,0,.26-.47,4.09,4.09,0,0,0,.19-.59l1.13-4.61a1.39,1.39,0,0,0,0-.33.9.9,0,0,0-.06-.34.92.92,0,0,0-.17-.25.7.7,0,0,0-.5-.2.86.86,0,0,0-.27.05,1.35,1.35,0,0,0-.26.15,1.09,1.09,0,0,0-.21.26,1.21,1.21,0,0,0-.13.35L6.7,30c-.19-.69-.37-1.38-.55-2.07s-.29-1.15-.48-1.84A.78.78,0,0,0,5,25.36c-.64,0-.74.76-.74.76L3.21,30"
              transform="translate(-0.59 -0.73)"/>
    </g>
    <g id="Livello_2" data-name="Livello 2">
        <path class="cls-2" d="M22.15,7.33s.18.18.33.13.65-.33.65-.33l-.19-.44Z" transform="translate(-0.59 -0.73)"/>
        <path class="cls-2"
              d="M22,4.56a2,2,0,0,1,.92,1.83,2.2,2.2,0,0,1-.39,1.07A3.91,3.91,0,0,0,25.23,4,3.77,3.77,0,0,0,24.81,2,2.06,2.06,0,0,0,23.18.87,2,2,0,0,0,21,2.72,2,2,0,0,0,22,4.56Z"
              transform="translate(-0.59 -0.73)"/>
        <path class="cls-3"
              d="M21.62,4.42a2,2,0,0,1,.92,1.84,2.1,2.1,0,0,1-.39,1.07,3.92,3.92,0,0,0,2.34-5.51A2.08,2.08,0,0,0,22.85.74a2,2,0,0,0-1.23,3.68Z"
              transform="translate(-0.59 -0.73)"/>
        <path class="cls-4"
              d="M11.69,19.19A1.9,1.9,0,0,1,9.92,18L4.07,3.36A1.91,1.91,0,0,1,7.62,1.94l5.84,14.64a1.91,1.91,0,0,1-1.06,2.48A1.94,1.94,0,0,1,11.69,19.19Z"
              transform="translate(-0.59 -0.73)"/>
        <path class="cls-5"
              d="M19,19.69a2,2,0,0,1-1.81-1.24l-6-15A2,2,0,1,1,14.85,2l6,15a2,2,0,0,1-1.09,2.55A2.06,2.06,0,0,1,19,19.69Z"
              transform="translate(-0.59 -0.73)"/>
        <path class="cls-6"
              d="M11.87,19.72a1.81,1.81,0,0,1-.72-.14A2,2,0,0,1,10.05,17L13.4,8.66a2,2,0,0,1,2.54-1.1A1.87,1.87,0,0,1,17,10l-3.35,8.38A1.9,1.9,0,0,1,11.87,19.72Z"
              transform="translate(-0.59 -0.73)"/>
        <path class="cls-1"
              d="M20.55,17l-6-15a2,2,0,1,0-3.64,1.46L13,8.68,11.5,12.47,7.31,2A2,2,0,1,0,3.68,3.44l6,15a2,2,0,0,0,1.62,1.23h.21a2,2,0,0,0,1.82-1.23l1.8-4.5,1.79,4.49a2,2,0,0,0,1.82,1.24,2,2,0,0,0,.72-.14A2,2,0,0,0,20.55,17Z"
              transform="translate(-0.59 -0.73)"/>
    </g>
</svg>
